<svg xmlns="http://www.w3.org/2000/svg" viewBox="0 0 50.01 8.16"><defs><style>.cls-1{fill:#00afff;}.cls-2{fill:#052635;}</style></defs><title>logo</title><g id="Layer_2" data-name="Layer 2"><g id="OBJECTS"><path class="cls-1" d="M0,0H2.14L2,5.88,4.6,5.64l-.12,2-4.15,0Z"/><path class="cls-1" d="M5.51,1.84l2.77-.53,1.9,6.33-1.71.43-.67-3L7,5.14,6.76,7.65,4.63,7.58,5.74,3l-.38.09ZM7.13,2.9,6.94,4.42H7.7L7.46,2.84Z"/><path class="cls-1" d="M9.21,1.38h5l-.06,1.7H12.59V7.62H10.73V3.08H9.26Z"/><path class="cls-1" d="M14.59,1.4l3.76-.13V3l-2.2.23,0,1,1.7-.3V5.16l-1.54.09,0,.87,1.5-.2-.39,1.51-2.27.2Z"/><path class="cls-1" d="M22.86,2.75l-1.17.64s-.73-1-1.29-.55.08,1,.8,1.29a1.73,1.73,0,0,1,.92.72,1.88,1.88,0,0,1,.28,1.08A1.8,1.8,0,0,1,22,7a2,2,0,0,1-1.15.66,2.68,2.68,0,0,1-2.47-1l.84-1.12s1,1.37,1.6.9-.11-1-.8-1.29a2.17,2.17,0,0,1-1.13-1,2,2,0,0,1-.19-1.24,2.16,2.16,0,0,1,.52-1.09,1.57,1.57,0,0,1,1-.54C21.8,1.16,22.22,1.81,22.86,2.75Z"/><path class="cls-1" d="M22.56,1.38h5l-.06,1.7H25.94V7.62H24.07V3.08H22.61Z"/><path class="cls-2" d="M29.25,1.85l1.56-.3.93,1.7.93-2,1.66-.16-.14,6.63-1.46,0L32.58,4.9,31.8,6.31,31,5.08l-.09,3.08-1.41,0Z"/><path class="cls-2" d="M34.35,1.35l3.83-.14V3l-2.24.23,0,1,1.73-.3V5.19l-1.57.1,0,.88L37.65,6,37.26,7.5,35,7.71Z"/><path class="cls-2" d="M38.21,1.34a4.67,4.67,0,0,1,2.25.21A2.62,2.62,0,0,1,41.9,2.79,3.36,3.36,0,0,1,42.14,5a2.89,2.89,0,0,1-.58,1.3,3,3,0,0,1-1,.76,4.34,4.34,0,0,1-1,.37,5.19,5.19,0,0,1-.84.12h-.34Zm1.47,5.09.19-.18a2.61,2.61,0,0,0,.4-.49,1.69,1.69,0,0,0-.62-2.49Z"/><path class="cls-2" d="M42.4,2.34V1.13h1.94V2.34Zm.07.6h1.8l-.12,4.79H43Z"/><path class="cls-2" d="M45.26,1.8l2.82-.54L50,7.71l-1.74.44-.69-3-.77,0-.29,2.56-2.17-.07L45.49,3l-.38.1Zm1.65,1.08-.2,1.55h.77l-.24-1.62Z"/></g></g></svg>